<svg xmlns="http://www.w3.org/2000/svg" xmlns:xlink="http://www.w3.org/1999/xlink" xmlns:lucid="lucid" width="1760" height="1360"><g transform="translate(0 0)" lucid:page-tab-id="HWEp-vi-RSFO"><path d="M0 0h1760v1360H0z" fill="#fff"/><path d="M440 528.33h300v198H440z" stroke="#333" stroke-width="2" fill="#fff"/><path d="M440 587.53h300" stroke="#333" stroke-width="2" fill="none"/><use xlink:href="#a" transform="matrix(1,0,0,1,448,536.3328947002899) translate(83.57499999999999 14.799999999999999)"/><use xlink:href="#b" transform="matrix(1,0,0,1,448,536.3328947002899) translate(108.57499999999999 36.4)"/><use xlink:href="#c" transform="matrix(1,0,0,1,452,595.53289470029) translate(0 32.69999999999999)"/><use xlink:href="#d" transform="matrix(1,0,0,1,452,595.53289470029) translate(15.5 32.69999999999999)"/><use xlink:href="#e" transform="matrix(1,0,0,1,452,595.53289470029) translate(99.35000000000001 32.69999999999999)"/><use xlink:href="#c" transform="matrix(1,0,0,1,452,595.53289470029) translate(0 54.29999999999999)"/><use xlink:href="#f" transform="matrix(1,0,0,1,452,595.53289470029) translate(15.5 54.29999999999999)"/><use xlink:href="#g" transform="matrix(1,0,0,1,452,595.53289470029) translate(107.30000000000001 54.29999999999999)"/><use xlink:href="#c" transform="matrix(1,0,0,1,452,595.53289470029) translate(0 75.89999999999999)"/><use xlink:href="#h" transform="matrix(1,0,0,1,452,595.53289470029) translate(15.5 75.89999999999999)"/><use xlink:href="#i" transform="matrix(1,0,0,1,452,595.53289470029) translate(126.30000000000001 75.89999999999999)"/><use xlink:href="#c" transform="matrix(1,0,0,1,452,595.53289470029) translate(0 97.5)"/><use xlink:href="#j" transform="matrix(1,0,0,1,452,595.53289470029) translate(15.5 97.5)"/><use xlink:href="#k" transform="matrix(1,0,0,1,452,595.53289470029) translate(88.30000000000001 97.5)"/><path d="M880 531.33h340v192H880z" stroke="#333" stroke-width="2" fill="#fff"/><path d="M880 590.53h340" stroke="#333" stroke-width="2" fill="none"/><use xlink:href="#a" transform="matrix(1,0,0,1,888,539.3328947002899) translate(103.57499999999999 14.799999999999999)"/><use xlink:href="#l" transform="matrix(1,0,0,1,888,539.3328947002899) translate(84.17500000000001 36.4)"/><use xlink:href="#c" transform="matrix(1,0,0,1,892,598.53289470029) translate(0 62.1)"/><use xlink:href="#m" transform="matrix(1,0,0,1,892,598.53289470029) translate(15.5 62.1)"/><use xlink:href="#n" transform="matrix(1,0,0,1,892,598.53289470029) translate(144.25 62.1)"/><path d="M440 867.83h300v198H440z" stroke="#333" stroke-width="2" fill="#fff"/><path d="M440 905.43h300" stroke="#333" stroke-width="2" fill="none"/><use xlink:href="#o" transform="matrix(1,0,0,1,448,875.8328947002899) translate(58.7 14.6)"/><use xlink:href="#c" transform="matrix(1,0,0,1,452,913.4328947002899) translate(0 43.69999999999999)"/><use xlink:href="#d" transform="matrix(1,0,0,1,452,913.4328947002899) translate(15.5 43.69999999999999)"/><use xlink:href="#p" transform="matrix(1,0,0,1,452,913.4328947002899) translate(99.35000000000001 43.69999999999999)"/><use xlink:href="#c" transform="matrix(1,0,0,1,452,913.4328947002899) translate(0 65.3)"/><use xlink:href="#f" transform="matrix(1,0,0,1,452,913.4328947002899) translate(15.5 65.3)"/><use xlink:href="#g" transform="matrix(1,0,0,1,452,913.4328947002899) translate(107.30000000000001 65.3)"/><use xlink:href="#c" transform="matrix(1,0,0,1,452,913.4328947002899) translate(0 86.9)"/><use xlink:href="#h" transform="matrix(1,0,0,1,452,913.4328947002899) translate(15.5 86.9)"/><use xlink:href="#i" transform="matrix(1,0,0,1,452,913.4328947002899) translate(126.30000000000001 86.9)"/><use xlink:href="#c" transform="matrix(1,0,0,1,452,913.4328947002899) translate(0 108.5)"/><use xlink:href="#j" transform="matrix(1,0,0,1,452,913.4328947002899) translate(15.5 108.5)"/><use xlink:href="#k" transform="matrix(1,0,0,1,452,913.4328947002899) translate(88.30000000000001 108.5)"/><path d="M880 867.83h340v198H880z" stroke="#333" stroke-width="2" fill="#fff"/><path d="M880 905.43h340" stroke="#333" stroke-width="2" fill="none"/><g><use xlink:href="#q" transform="matrix(1,0,0,1,888,875.8328947002899) translate(77.67500000000001 14.6)"/></g><g><use xlink:href="#c" transform="matrix(1,0,0,1,892,913.4328947002899) translate(0 65.3)"/><use xlink:href="#m" transform="matrix(1,0,0,1,892,913.4328947002899) translate(15.5 65.3)"/><use xlink:href="#r" transform="matrix(1,0,0,1,892,913.4328947002899) translate(144.25 65.3)"/><use xlink:href="#c" transform="matrix(1,0,0,1,892,913.4328947002899) translate(0 86.9)"/><use xlink:href="#s" transform="matrix(1,0,0,1,892,913.4328947002899) translate(15.5 86.9)"/><use xlink:href="#t" transform="matrix(1,0,0,1,892,913.4328947002899) translate(157.25 86.9)"/></g><path d="M878.5 627.33h-10.1m-10.1 0h-20.17m-10.1 0h-20.18m-10.1 0h-20.18m-10.1 0h-10.1" stroke="#333" fill="none"/><path d="M879 627.8h-.5v-.94h.5z" stroke="#333" stroke-width=".05" fill="#333"/><path d="M742.62 627.33l14.26-4.63v9.27z" stroke="#333" fill="#333"/><path d="M640 260h340v177H640z" stroke="#333" stroke-width="2" fill="#fff"/><path d="M640 297.6h340" stroke="#333" stroke-width="2" fill="none"/><g><use xlink:href="#u" transform="matrix(1,0,0,1,648,268) translate(98.1 14.6)"/></g><g><use xlink:href="#c" transform="matrix(1,0,0,1,652,305.6) translate(0 65.60000000000001)"/><use xlink:href="#v" transform="matrix(1,0,0,1,652,305.6) translate(15.5 65.60000000000001)"/><use xlink:href="#k" transform="matrix(1,0,0,1,652,305.6) translate(191.2 65.60000000000001)"/></g><path d="M590 866.33v-10.37m0-10.38v-20.75m0-10.38V793.7m0-10.37v-20.75m0-10.38v-10.38" stroke="#333" fill="none"/><path d="M590.48 866.83h-.96v-.5h.96z" stroke="#333" stroke-width=".05" fill="#333"/><path d="M590 728.33l7.5 13h-15z" stroke="#333" fill="#fff"/><path d="M1050 866.33V855.7m0-10.62v-21.25m0-10.63v-21.25m0-10.62v-21.25m0-10.63v-10.63" stroke="#333" fill="none"/><path d="M1050.47 866.83h-.94v-.5h.94z" stroke="#333" stroke-width=".05" fill="#333"/><path d="M1050 725.33l7.5 13h-15z" stroke="#333" fill="#fff"/><path d="M638.5 348.5h-6.08m-6.1 0h-12.15m-6.1 0H602l-1.88.15-1.83.44-1.75.7-.53.34m-4.38 4.38l-.33.53-.7 1.74-.45 1.82-.15 1.88v5m0 5.03v10.03m0 5v10.05m0 5.02v10.03m0 5.02v10.02m0 5v10.04m0 5v10.04m0 5.02v10.03m0 5v10.04m0 5.02v10.02m0 5v5.03" stroke="#333" fill="none"/><path d="M639 348.98h-.5v-.96h.5z" stroke="#333" stroke-width=".05" fill="#333"/><path d="M590 525.7l-4.63-14.25h9.26z" stroke="#333" fill="#333"/><path d="M981.5 348.5h4.7m4.72 0h9.4m4.72 0h9.42m4.7 0h9.42m4.7 0h4.72l1.88.15 1.83.44 1.75.7.53.34m4.38 4.38l.33.53.7 1.74.45 1.82.15 1.88v5.12m0 5.1v10.24m0 5.12v10.23m0 5.12v10.23m0 5.12V427m0 5.1v10.24m0 5.1v10.24m0 5.12v10.23m0 5.1v10.24m0 5.12v10.22m0 5.1v5.13" stroke="#333" fill="none"/><path d="M981.5 348.98h-.5v-.96h.5z" stroke="#333" stroke-width=".05" fill="#333"/><path d="M1050 528.7l-4.63-14.25h9.27z" stroke="#333" fill="#333"/><path d="M757.38 966.83h105.24" stroke="#333" fill="none"/><path d="M742.62 966.83l14.26-4.63v9.27zM877.38 966.83l-14.26 4.64v-9.27z" stroke="#333" fill="#333"/><defs><path fill="#333" d="M15-91v-56l181-69v40L49-119l147 57v40" id="w"/><path fill="#333" d="M25-224v-37h50v37H25zM25 0v-190h50V0H25" id="x"/><path fill="#333" d="M135-194c87-1 58 113 63 194h-50c-7-57 23-157-34-157-59 0-34 97-39 157H25l-1-190h47c2 12-1 28 3 38 12-26 28-41 61-42" id="y"/><path fill="#333" d="M115-3C79 11 28 4 28-45v-112H4v-33h27l15-45h31v45h36v33H77v99c-1 23 16 31 38 25v30" id="z"/><path fill="#333" d="M185-48c-13 30-37 53-82 52C43 2 14-33 14-96s30-98 90-98c62 0 83 45 84 108H66c0 31 8 55 39 56 18 0 30-7 34-22zm-45-69c5-46-57-63-70-21-2 6-4 13-4 21h74" id="A"/><path fill="#333" d="M135-150c-39-12-60 13-60 57V0H25l-1-190h47c2 13-1 29 3 40 6-28 27-53 61-41v41" id="B"/><path fill="#333" d="M121-226c-27-7-43 5-38 36h38v33H83V0H34v-157H6v-33h28c-9-59 32-81 87-68v32" id="C"/><path fill="#333" d="M133-34C117-15 103 5 69 4 32 3 11-16 11-54c-1-60 55-63 116-61 1-26-3-47-28-47-18 1-26 9-28 27l-52-2c7-38 36-58 82-57s74 22 75 68l1 82c-1 14 12 18 25 15v27c-30 8-71 5-69-32zm-48 3c29 0 43-24 42-57-32 0-66-3-65 30 0 17 8 27 23 27" id="D"/><path fill="#333" d="M190-63c-7 42-38 67-86 67-59 0-84-38-90-98-12-110 154-137 174-36l-49 2c-2-19-15-32-35-32-30 0-35 28-38 64-6 74 65 87 74 30" id="E"/><path fill="#333" d="M15-22v-40l146-57-146-57v-40l181 69v56" id="F"/><g id="a"><use transform="matrix(0.05,0,0,0.05,0,0)" xlink:href="#w"/><use transform="matrix(0.05,0,0,0.05,10.5,0)" xlink:href="#w"/><use transform="matrix(0.05,0,0,0.05,21,0)" xlink:href="#x"/><use transform="matrix(0.05,0,0,0.05,26,0)" xlink:href="#y"/><use transform="matrix(0.05,0,0,0.05,36.95,0)" xlink:href="#z"/><use transform="matrix(0.05,0,0,0.05,42.900000000000006,0)" xlink:href="#A"/><use transform="matrix(0.05,0,0,0.05,52.900000000000006,0)" xlink:href="#B"/><use transform="matrix(0.05,0,0,0.05,59.900000000000006,0)" xlink:href="#C"/><use transform="matrix(0.05,0,0,0.05,65.85000000000001,0)" xlink:href="#D"/><use transform="matrix(0.05,0,0,0.05,75.85000000000001,0)" xlink:href="#E"/><use transform="matrix(0.05,0,0,0.05,85.85000000000001,0)" xlink:href="#A"/><use transform="matrix(0.05,0,0,0.05,95.85000000000001,0)" xlink:href="#F"/><use transform="matrix(0.05,0,0,0.05,106.35000000000001,0)" xlink:href="#F"/></g><path fill="#333" d="M24 0v-248h52V0H24" id="G"/><path fill="#333" d="M110-194c64 0 96 36 96 99 0 64-35 99-97 99-61 0-95-36-95-99 0-62 34-99 96-99zm-1 164c35 0 45-28 45-65 0-40-10-65-43-65-34 0-45 26-45 65 0 36 10 65 43 65" id="H"/><g id="b"><use transform="matrix(0.05,0,0,0.05,0,0)" xlink:href="#G"/><use transform="matrix(0.05,0,0,0.05,5,0)" xlink:href="#G"/><use transform="matrix(0.05,0,0,0.05,10,0)" xlink:href="#z"/><use transform="matrix(0.05,0,0,0.05,15.949999999999998,0)" xlink:href="#A"/><use transform="matrix(0.05,0,0,0.05,25.950000000000003,0)" xlink:href="#B"/><use transform="matrix(0.05,0,0,0.05,32.95,0)" xlink:href="#D"/><use transform="matrix(0.05,0,0,0.05,42.95,0)" xlink:href="#z"/><use transform="matrix(0.05,0,0,0.05,48.900000000000006,0)" xlink:href="#H"/><use transform="matrix(0.05,0,0,0.05,59.85,0)" xlink:href="#B"/></g><path fill="#333" d="M118-107v75H92v-75H18v-26h74v-75h26v75h74v26h-74" id="I"/><use transform="matrix(0.05,0,0,0.05,0,0)" xlink:href="#I" id="c"/><path fill="#333" d="M177-190C167-65 218 103 67 71c-23-6-38-20-44-43l32-5c15 47 100 32 89-28v-30C133-14 115 1 83 1 29 1 15-40 15-95c0-56 16-97 71-98 29-1 48 16 59 35 1-10 0-23 2-32h30zM94-22c36 0 50-32 50-73 0-42-14-75-50-75-39 0-46 34-46 75s6 73 46 73" id="J"/><path fill="#333" d="M100-194c63 0 86 42 84 106H49c0 40 14 67 53 68 26 1 43-12 49-29l28 8c-11 28-37 45-77 45C44 4 14-33 15-96c1-61 26-98 85-98zm52 81c6-60-76-77-97-28-3 7-6 17-6 28h103" id="K"/><path fill="#333" d="M59-47c-2 24 18 29 38 22v24C64 9 27 4 27-40v-127H5v-23h24l9-43h21v43h35v23H59v120" id="L"/><path fill="#333" d="M190 0L58-211 59 0H30v-248h39L202-35l-2-213h31V0h-41" id="M"/><path fill="#333" d="M141 0L90-78 38 0H4l68-98-65-92h35l48 74 47-74h35l-64 92 68 98h-35" id="N"/><path fill="#333" d="M87 75C49 33 22-17 22-94c0-76 28-126 65-167h31c-38 41-64 92-64 168S80 34 118 75H87" id="O"/><path fill="#333" d="M33-261c38 41 65 92 65 168S71 34 33 75H2C39 34 66-17 66-93S39-220 2-261h31" id="P"/><path fill="#333" d="M33-154v-36h34v36H33zM33 0v-36h34V0H33" id="Q"/><g id="d"><use transform="matrix(0.05,0,0,0.05,0,0)" xlink:href="#J"/><use transform="matrix(0.05,0,0,0.05,10,0)" xlink:href="#K"/><use transform="matrix(0.05,0,0,0.05,20,0)" xlink:href="#L"/><use transform="matrix(0.05,0,0,0.05,25,0)" xlink:href="#M"/><use transform="matrix(0.05,0,0,0.05,37.95,0)" xlink:href="#K"/><use transform="matrix(0.05,0,0,0.05,47.95,0)" xlink:href="#N"/><use transform="matrix(0.05,0,0,0.05,56.95,0)" xlink:href="#L"/><use transform="matrix(0.05,0,0,0.05,61.95,0)" xlink:href="#O"/><use transform="matrix(0.05,0,0,0.05,67.9,0)" xlink:href="#P"/><use transform="matrix(0.05,0,0,0.05,73.85000000000001,0)" xlink:href="#Q"/></g><path fill="#333" d="M127-220V0H93v-220H8v-28h204v28h-85" id="R"/><use transform="matrix(0.05,0,0,0.05,0,0)" xlink:href="#R" id="e"/><path fill="#333" d="M106-169C34-169 62-67 57 0H25v-261h32l-1 103c12-21 28-36 61-36 89 0 53 116 60 194h-32v-121c2-32-8-49-39-48" id="S"/><path fill="#333" d="M141-36C126-15 110 5 73 4 37 3 15-17 15-53c-1-64 63-63 125-63 3-35-9-54-41-54-24 1-41 7-42 31l-33-3c5-37 33-52 76-52 45 0 72 20 72 64v82c-1 20 7 32 28 27v20c-31 9-61-2-59-35zM48-53c0 20 12 33 32 33 41-3 63-29 60-74-43 2-92-5-92 41" id="T"/><path fill="#333" d="M135-143c-3-34-86-38-87 0 15 53 115 12 119 90S17 21 10-45l28-5c4 36 97 45 98 0-10-56-113-15-118-90-4-57 82-63 122-42 12 7 21 19 24 35" id="U"/><path fill="#333" d="M240 0l2-218c-23 76-54 145-80 218h-23L58-218 59 0H30v-248h44l77 211c21-75 51-140 76-211h43V0h-30" id="V"/><path fill="#333" d="M100-194c62-1 85 37 85 99 1 63-27 99-86 99S16-35 15-95c0-66 28-99 85-99zM99-20c44 1 53-31 53-75 0-43-8-75-51-75s-53 32-53 75 10 74 51 75" id="W"/><path fill="#333" d="M114-163C36-179 61-72 57 0H25l-1-190h30c1 12-1 29 2 39 6-27 23-49 58-41v29" id="X"/><g id="f"><use transform="matrix(0.05,0,0,0.05,0,0)" xlink:href="#S"/><use transform="matrix(0.05,0,0,0.05,10,0)" xlink:href="#T"/><use transform="matrix(0.05,0,0,0.05,20,0)" xlink:href="#U"/><use transform="matrix(0.05,0,0,0.05,29,0)" xlink:href="#V"/><use transform="matrix(0.05,0,0,0.05,43.95,0)" xlink:href="#W"/><use transform="matrix(0.05,0,0,0.05,53.95,0)" xlink:href="#X"/><use transform="matrix(0.05,0,0,0.05,59.900000000000006,0)" xlink:href="#K"/><use transform="matrix(0.05,0,0,0.05,69.9,0)" xlink:href="#O"/><use transform="matrix(0.05,0,0,0.05,75.85000000000001,0)" xlink:href="#P"/><use transform="matrix(0.05,0,0,0.05,81.80000000000001,0)" xlink:href="#Q"/></g><path fill="#333" d="M115-194c53 0 69 39 70 98 0 66-23 100-70 100C84 3 66-7 56-30L54 0H23l1-261h32v101c10-23 28-34 59-34zm-8 174c40 0 45-34 45-75 0-40-5-75-45-74-42 0-51 32-51 76 0 43 10 73 51 73" id="Y"/><path fill="#333" d="M24 0v-261h32V0H24" id="Z"/><g id="g"><use transform="matrix(0.05,0,0,0.05,0,0)" xlink:href="#Y"/><use transform="matrix(0.05,0,0,0.05,10,0)" xlink:href="#W"/><use transform="matrix(0.05,0,0,0.05,20,0)" xlink:href="#W"/><use transform="matrix(0.05,0,0,0.05,30,0)" xlink:href="#Z"/></g><path fill="#333" d="M30-248c87 1 191-15 191 75 0 78-77 80-158 76V0H30v-248zm33 125c57 0 124 11 124-50 0-59-68-47-124-48v98" id="aa"/><path fill="#333" d="M24-231v-30h32v30H24zM24 0v-190h32V0H24" id="ab"/><path fill="#333" d="M117-194c89-4 53 116 60 194h-32v-121c0-31-8-49-39-48C34-167 62-67 57 0H25l-1-190h30c1 10-1 24 2 32 11-22 29-35 61-36" id="ac"/><g id="h"><use transform="matrix(0.05,0,0,0.05,0,0)" xlink:href="#J"/><use transform="matrix(0.05,0,0,0.05,10,0)" xlink:href="#K"/><use transform="matrix(0.05,0,0,0.05,20,0)" xlink:href="#L"/><use transform="matrix(0.05,0,0,0.05,25,0)" xlink:href="#aa"/><use transform="matrix(0.05,0,0,0.05,37,0)" xlink:href="#W"/><use transform="matrix(0.05,0,0,0.05,47,0)" xlink:href="#U"/><use transform="matrix(0.05,0,0,0.05,56,0)" xlink:href="#ab"/><use transform="matrix(0.05,0,0,0.05,59.95,0)" xlink:href="#L"/><use transform="matrix(0.05,0,0,0.05,64.95,0)" xlink:href="#ab"/><use transform="matrix(0.05,0,0,0.05,68.9,0)" xlink:href="#W"/><use transform="matrix(0.05,0,0,0.05,78.9,0)" xlink:href="#ac"/><use transform="matrix(0.05,0,0,0.05,88.9,0)" xlink:href="#O"/><use transform="matrix(0.05,0,0,0.05,94.85000000000001,0)" xlink:href="#P"/><use transform="matrix(0.05,0,0,0.05,100.80000000000001,0)" xlink:href="#Q"/></g><g id="i"><use transform="matrix(0.05,0,0,0.05,0,0)" xlink:href="#ab"/><use transform="matrix(0.05,0,0,0.05,3.95,0)" xlink:href="#ac"/><use transform="matrix(0.05,0,0,0.05,13.949999999999998,0)" xlink:href="#L"/></g><g id="j"><use transform="matrix(0.05,0,0,0.05,0,0)" xlink:href="#X"/><use transform="matrix(0.05,0,0,0.05,5.95,0)" xlink:href="#K"/><use transform="matrix(0.05,0,0,0.05,15.949999999999998,0)" xlink:href="#U"/><use transform="matrix(0.05,0,0,0.05,24.95,0)" xlink:href="#L"/><use transform="matrix(0.05,0,0,0.05,29.950000000000003,0)" xlink:href="#T"/><use transform="matrix(0.05,0,0,0.05,39.95,0)" xlink:href="#X"/><use transform="matrix(0.05,0,0,0.05,45.900000000000006,0)" xlink:href="#L"/><use transform="matrix(0.05,0,0,0.05,50.900000000000006,0)" xlink:href="#O"/><use transform="matrix(0.05,0,0,0.05,56.85,0)" xlink:href="#P"/><use transform="matrix(0.05,0,0,0.05,62.80000000000001,0)" xlink:href="#Q"/></g><path fill="#333" d="M108 0H70L1-190h34L89-25l56-165h34" id="ad"/><path fill="#333" d="M85-194c31 0 48 13 60 33l-1-100h32l1 261h-30c-2-10 0-23-3-31C134-8 116 4 85 4 32 4 16-35 15-94c0-66 23-100 70-100zm9 24c-40 0-46 34-46 75 0 40 6 74 45 74 42 0 51-32 51-76 0-42-9-74-50-73" id="ae"/><g id="k"><use transform="matrix(0.05,0,0,0.05,0,0)" xlink:href="#ad"/><use transform="matrix(0.05,0,0,0.05,9,0)" xlink:href="#W"/><use transform="matrix(0.05,0,0,0.05,19,0)" xlink:href="#ab"/><use transform="matrix(0.05,0,0,0.05,22.95,0)" xlink:href="#ae"/></g><path fill="#333" d="M135-194c52 0 70 43 70 98 0 56-19 99-73 100-30 1-46-15-58-35L72 0H24l1-261h50v104c11-23 29-37 60-37zM114-30c31 0 40-27 40-66 0-37-7-63-39-63s-41 28-41 65c0 36 8 64 40 64" id="af"/><path fill="#333" d="M25 0v-261h50V0H25" id="ag"/><path fill="#333" d="M67-125c0 53 21 87 73 88 37 1 54-22 65-47l45 17C233-25 199 4 140 4 58 4 20-42 15-125 8-235 124-281 211-232c18 10 29 29 36 50l-46 12c-8-25-30-41-62-41-52 0-71 34-72 86" id="ah"/><g id="l"><use transform="matrix(0.05,0,0,0.05,0,0)" xlink:href="#G"/><use transform="matrix(0.05,0,0,0.05,5,0)" xlink:href="#G"/><use transform="matrix(0.05,0,0,0.05,10,0)" xlink:href="#z"/><use transform="matrix(0.05,0,0,0.05,15.949999999999998,0)" xlink:href="#A"/><use transform="matrix(0.05,0,0,0.05,25.950000000000003,0)" xlink:href="#B"/><use transform="matrix(0.05,0,0,0.05,32.95,0)" xlink:href="#D"/><use transform="matrix(0.05,0,0,0.05,42.95,0)" xlink:href="#af"/><use transform="matrix(0.05,0,0,0.05,53.900000000000006,0)" xlink:href="#ag"/><use transform="matrix(0.05,0,0,0.05,58.900000000000006,0)" xlink:href="#A"/><use transform="matrix(0.05,0,0,0.05,68.9,0)" xlink:href="#ah"/><use transform="matrix(0.05,0,0,0.05,81.85000000000001,0)" xlink:href="#H"/><use transform="matrix(0.05,0,0,0.05,92.80000000000001,0)" xlink:href="#ag"/><use transform="matrix(0.05,0,0,0.05,97.80000000000001,0)" xlink:href="#ag"/><use transform="matrix(0.05,0,0,0.05,102.80000000000001,0)" xlink:href="#A"/><use transform="matrix(0.05,0,0,0.05,112.80000000000001,0)" xlink:href="#E"/><use transform="matrix(0.05,0,0,0.05,122.80000000000001,0)" xlink:href="#z"/><use transform="matrix(0.05,0,0,0.05,128.75,0)" xlink:href="#x"/><use transform="matrix(0.05,0,0,0.05,133.75,0)" xlink:href="#H"/><use transform="matrix(0.05,0,0,0.05,144.7,0)" xlink:href="#y"/></g><path fill="#333" d="M96-169c-40 0-48 33-48 73s9 75 48 75c24 0 41-14 43-38l32 2c-6 37-31 61-74 61-59 0-76-41-82-99-10-93 101-131 147-64 4 7 5 14 7 22l-32 3c-4-21-16-35-41-35" id="ai"/><path fill="#333" d="M33 0v-248h34V0H33" id="aj"/><g id="m"><use transform="matrix(0.05,0,0,0.05,0,0)" xlink:href="#ai"/><use transform="matrix(0.05,0,0,0.05,9,0)" xlink:href="#X"/><use transform="matrix(0.05,0,0,0.05,14.949999999999998,0)" xlink:href="#K"/><use transform="matrix(0.05,0,0,0.05,24.95,0)" xlink:href="#T"/><use transform="matrix(0.05,0,0,0.05,34.95,0)" xlink:href="#L"/><use transform="matrix(0.05,0,0,0.05,39.95,0)" xlink:href="#K"/><use transform="matrix(0.05,0,0,0.05,49.95,0)" xlink:href="#aj"/><use transform="matrix(0.05,0,0,0.05,54.95,0)" xlink:href="#L"/><use transform="matrix(0.05,0,0,0.05,59.95,0)" xlink:href="#K"/><use transform="matrix(0.05,0,0,0.05,69.95,0)" xlink:href="#X"/><use transform="matrix(0.05,0,0,0.05,75.9,0)" xlink:href="#T"/><use transform="matrix(0.05,0,0,0.05,85.9,0)" xlink:href="#L"/><use transform="matrix(0.05,0,0,0.05,90.9,0)" xlink:href="#W"/><use transform="matrix(0.05,0,0,0.05,100.9,0)" xlink:href="#X"/><use transform="matrix(0.05,0,0,0.05,106.85000000000001,0)" xlink:href="#O"/><use transform="matrix(0.05,0,0,0.05,112.80000000000001,0)" xlink:href="#P"/><use transform="matrix(0.05,0,0,0.05,118.75,0)" xlink:href="#Q"/></g><g id="n"><use transform="matrix(0.05,0,0,0.05,0,0)" xlink:href="#aj"/><use transform="matrix(0.05,0,0,0.05,5,0)" xlink:href="#L"/><use transform="matrix(0.05,0,0,0.05,10,0)" xlink:href="#K"/><use transform="matrix(0.05,0,0,0.05,20,0)" xlink:href="#X"/><use transform="matrix(0.05,0,0,0.05,25.950000000000003,0)" xlink:href="#T"/><use transform="matrix(0.05,0,0,0.05,35.95,0)" xlink:href="#L"/><use transform="matrix(0.05,0,0,0.05,40.95,0)" xlink:href="#W"/><use transform="matrix(0.05,0,0,0.05,50.95,0)" xlink:href="#X"/></g><path fill="#333" d="M169-182c-1-43-94-46-97-3 18 66 151 10 154 114 3 95-165 93-204 36-6-8-10-19-12-30l50-8c3 46 112 56 116 5-17-69-150-10-154-114-4-87 153-88 188-35 5 8 8 18 10 28" id="ak"/><path fill="#333" d="M135-194c53 0 70 44 70 98 0 56-19 98-73 100-31 1-45-17-59-34 3 33 2 69 2 105H25l-1-265h48c2 10 0 23 3 31 11-24 29-35 60-35zM114-30c33 0 39-31 40-66 0-38-9-64-40-64-56 0-55 130 0 130" id="al"/><path fill="#333" d="M67-125c0 54 23 88 75 88 28 0 53-7 68-21v-34h-60v-39h108v91C232-14 192 4 140 4 58 4 20-42 15-125 8-236 126-280 215-234c19 10 29 26 37 47l-47 15c-11-23-29-39-63-39-53 1-75 33-75 86" id="am"/><path fill="#333" d="M85 4C-2 5 27-109 22-190h50c7 57-23 150 33 157 60-5 35-97 40-157h50l1 190h-47c-2-12 1-28-3-38-12 25-28 42-61 42" id="an"/><g id="o"><use transform="matrix(0.05,0,0,0.05,0,0)" xlink:href="#ak"/><use transform="matrix(0.05,0,0,0.05,12,0)" xlink:href="#al"/><use transform="matrix(0.05,0,0,0.05,22.950000000000003,0)" xlink:href="#B"/><use transform="matrix(0.05,0,0,0.05,29.950000000000003,0)" xlink:href="#x"/><use transform="matrix(0.05,0,0,0.05,34.95,0)" xlink:href="#z"/><use transform="matrix(0.05,0,0,0.05,40.900000000000006,0)" xlink:href="#A"/><use transform="matrix(0.05,0,0,0.05,50.900000000000006,0)" xlink:href="#am"/><use transform="matrix(0.05,0,0,0.05,64.9,0)" xlink:href="#B"/><use transform="matrix(0.05,0,0,0.05,71.9,0)" xlink:href="#H"/><use transform="matrix(0.05,0,0,0.05,82.85000000000001,0)" xlink:href="#an"/><use transform="matrix(0.05,0,0,0.05,93.80000000000001,0)" xlink:href="#al"/><use transform="matrix(0.05,0,0,0.05,104.75,0)" xlink:href="#G"/><use transform="matrix(0.05,0,0,0.05,109.75,0)" xlink:href="#z"/><use transform="matrix(0.05,0,0,0.05,115.7,0)" xlink:href="#A"/><use transform="matrix(0.05,0,0,0.05,125.7,0)" xlink:href="#B"/><use transform="matrix(0.05,0,0,0.05,132.70000000000002,0)" xlink:href="#D"/><use transform="matrix(0.05,0,0,0.05,142.70000000000002,0)" xlink:href="#z"/><use transform="matrix(0.05,0,0,0.05,148.65,0)" xlink:href="#H"/><use transform="matrix(0.05,0,0,0.05,159.6,0)" xlink:href="#B"/></g><path fill="#333" d="M185-189c-5-48-123-54-124 2 14 75 158 14 163 119 3 78-121 87-175 55-17-10-28-26-33-46l33-7c5 56 141 63 141-1 0-78-155-14-162-118-5-82 145-84 179-34 5 7 8 16 11 25" id="ao"/><path fill="#333" d="M115-194c55 1 70 41 70 98S169 2 115 4C84 4 66-9 55-30l1 105H24l-1-265h31l2 30c10-21 28-34 59-34zm-8 174c40 0 45-34 45-75s-6-73-45-74c-42 0-51 32-51 76 0 43 10 73 51 73" id="ap"/><g id="p"><use transform="matrix(0.05,0,0,0.05,0,0)" xlink:href="#ao"/><use transform="matrix(0.05,0,0,0.05,12,0)" xlink:href="#ap"/><use transform="matrix(0.05,0,0,0.05,22,0)" xlink:href="#X"/><use transform="matrix(0.05,0,0,0.05,27.950000000000003,0)" xlink:href="#ab"/><use transform="matrix(0.05,0,0,0.05,31.899999999999995,0)" xlink:href="#L"/><use transform="matrix(0.05,0,0,0.05,36.9,0)" xlink:href="#K"/></g><g id="q"><use transform="matrix(0.05,0,0,0.05,0,0)" xlink:href="#G"/><use transform="matrix(0.05,0,0,0.05,5,0)" xlink:href="#z"/><use transform="matrix(0.05,0,0,0.05,10.95,0)" xlink:href="#A"/><use transform="matrix(0.05,0,0,0.05,20.95,0)" xlink:href="#B"/><use transform="matrix(0.05,0,0,0.05,27.950000000000003,0)" xlink:href="#D"/><use transform="matrix(0.05,0,0,0.05,37.95,0)" xlink:href="#af"/><use transform="matrix(0.05,0,0,0.05,48.900000000000006,0)" xlink:href="#ag"/><use transform="matrix(0.05,0,0,0.05,53.900000000000006,0)" xlink:href="#A"/><use transform="matrix(0.05,0,0,0.05,63.900000000000006,0)" xlink:href="#ak"/><use transform="matrix(0.05,0,0,0.05,75.9,0)" xlink:href="#al"/><use transform="matrix(0.05,0,0,0.05,86.85000000000001,0)" xlink:href="#B"/><use transform="matrix(0.05,0,0,0.05,93.85000000000001,0)" xlink:href="#x"/><use transform="matrix(0.05,0,0,0.05,98.85000000000001,0)" xlink:href="#z"/><use transform="matrix(0.05,0,0,0.05,104.80000000000001,0)" xlink:href="#A"/><use transform="matrix(0.05,0,0,0.05,114.80000000000001,0)" xlink:href="#am"/><use transform="matrix(0.05,0,0,0.05,128.8,0)" xlink:href="#B"/><use transform="matrix(0.05,0,0,0.05,135.8,0)" xlink:href="#H"/><use transform="matrix(0.05,0,0,0.05,146.75,0)" xlink:href="#an"/><use transform="matrix(0.05,0,0,0.05,157.7,0)" xlink:href="#al"/></g><path fill="#333" d="M143 4C61 4 22-44 18-125c-5-107 100-154 193-111 17 8 29 25 37 43l-32 9c-13-25-37-40-76-40-61 0-88 39-88 99 0 61 29 100 91 101 35 0 62-11 79-27v-45h-74v-28h105v86C228-13 192 4 143 4" id="aq"/><path fill="#333" d="M84 4C-5 8 30-112 23-190h32v120c0 31 7 50 39 49 72-2 45-101 50-169h31l1 190h-30c-1-10 1-25-2-33-11 22-28 36-60 37" id="ar"/><g id="r"><use transform="matrix(0.05,0,0,0.05,0,0)" xlink:href="#ao"/><use transform="matrix(0.05,0,0,0.05,12,0)" xlink:href="#ap"/><use transform="matrix(0.05,0,0,0.05,22,0)" xlink:href="#X"/><use transform="matrix(0.05,0,0,0.05,27.950000000000003,0)" xlink:href="#ab"/><use transform="matrix(0.05,0,0,0.05,31.899999999999995,0)" xlink:href="#L"/><use transform="matrix(0.05,0,0,0.05,36.9,0)" xlink:href="#K"/><use transform="matrix(0.05,0,0,0.05,46.9,0)" xlink:href="#aq"/><use transform="matrix(0.05,0,0,0.05,60.900000000000006,0)" xlink:href="#X"/><use transform="matrix(0.05,0,0,0.05,66.85,0)" xlink:href="#W"/><use transform="matrix(0.05,0,0,0.05,76.85,0)" xlink:href="#ar"/><use transform="matrix(0.05,0,0,0.05,86.85,0)" xlink:href="#ap"/><use transform="matrix(0.05,0,0,0.05,96.85,0)" xlink:href="#aj"/><use transform="matrix(0.05,0,0,0.05,101.85,0)" xlink:href="#L"/><use transform="matrix(0.05,0,0,0.05,106.84999999999998,0)" xlink:href="#K"/><use transform="matrix(0.05,0,0,0.05,116.84999999999998,0)" xlink:href="#X"/><use transform="matrix(0.05,0,0,0.05,122.80000000000001,0)" xlink:href="#T"/><use transform="matrix(0.05,0,0,0.05,132.8,0)" xlink:href="#L"/><use transform="matrix(0.05,0,0,0.05,137.8,0)" xlink:href="#W"/><use transform="matrix(0.05,0,0,0.05,147.8,0)" xlink:href="#X"/></g><path fill="#333" d="M-5 72V49h209v23H-5" id="as"/><path fill="#333" d="M206 0h-36l-40-164L89 0H53L-1-190h32L70-26l43-164h34l41 164 42-164h31" id="at"/><g id="s"><use transform="matrix(0.05,0,0,0.05,0,0)" xlink:href="#J"/><use transform="matrix(0.05,0,0,0.05,10,0)" xlink:href="#K"/><use transform="matrix(0.05,0,0,0.05,20,0)" xlink:href="#L"/><use transform="matrix(0.05,0,0,0.05,25,0)" xlink:href="#as"/><use transform="matrix(0.05,0,0,0.05,35,0)" xlink:href="#X"/><use transform="matrix(0.05,0,0,0.05,40.95,0)" xlink:href="#T"/><use transform="matrix(0.05,0,0,0.05,50.95,0)" xlink:href="#at"/><use transform="matrix(0.05,0,0,0.05,63.900000000000006,0)" xlink:href="#as"/><use transform="matrix(0.05,0,0,0.05,73.9,0)" xlink:href="#J"/><use transform="matrix(0.05,0,0,0.05,83.9,0)" xlink:href="#X"/><use transform="matrix(0.05,0,0,0.05,89.85000000000001,0)" xlink:href="#W"/><use transform="matrix(0.05,0,0,0.05,99.85000000000001,0)" xlink:href="#ar"/><use transform="matrix(0.05,0,0,0.05,109.85000000000001,0)" xlink:href="#ap"/><use transform="matrix(0.05,0,0,0.05,119.85000000000001,0)" xlink:href="#O"/><use transform="matrix(0.05,0,0,0.05,125.80000000000001,0)" xlink:href="#P"/><use transform="matrix(0.05,0,0,0.05,131.75,0)" xlink:href="#Q"/></g><g id="t"><use transform="matrix(0.05,0,0,0.05,0,0)" xlink:href="#aq"/><use transform="matrix(0.05,0,0,0.05,14,0)" xlink:href="#X"/><use transform="matrix(0.05,0,0,0.05,19.95,0)" xlink:href="#W"/><use transform="matrix(0.05,0,0,0.05,29.950000000000003,0)" xlink:href="#ar"/><use transform="matrix(0.05,0,0,0.05,39.95,0)" xlink:href="#ap"/></g><path fill="#333" d="M24-248c93 1 206-16 204 79-1 75-69 88-152 82V0H24v-248zm52 121c47 0 100 7 100-41 0-47-54-39-100-39v80" id="au"/><path fill="#333" d="M114-157C55-157 80-60 75 0H25v-261h50l-1 109c12-26 28-41 61-42 86-1 58 113 63 194h-50c-7-57 23-157-34-157" id="av"/><path fill="#333" d="M123 10C108 53 80 86 19 72V37c35 8 53-11 59-39L3-190h52l48 148c12-52 28-100 44-148h51" id="aw"/><path fill="#333" d="M137-138c1-29-70-34-71-4 15 46 118 7 119 86 1 83-164 76-172 9l43-7c4 19 20 25 44 25 33 8 57-30 24-41C81-84 22-81 20-136c-2-80 154-74 161-7" id="ax"/><path fill="#333" d="M24 0v-248h195v40H76v63h132v40H76v65h150V0H24" id="ay"/><path fill="#333" d="M195-6C206 82 75 100 31 46c-4-6-6-13-8-21l49-6c3 16 16 24 34 25 40 0 42-37 40-79-11 22-30 35-61 35-53 0-70-43-70-97 0-56 18-96 73-97 30 0 46 14 59 34l2-30h47zm-90-29c32 0 41-27 41-63 0-35-9-62-40-62-32 0-39 29-40 63 0 36 9 62 39 62" id="az"/><g id="u"><use transform="matrix(0.05,0,0,0.05,0,0)" xlink:href="#au"/><use transform="matrix(0.05,0,0,0.05,12,0)" xlink:href="#av"/><use transform="matrix(0.05,0,0,0.05,22.950000000000003,0)" xlink:href="#aw"/><use transform="matrix(0.05,0,0,0.05,32.95,0)" xlink:href="#ax"/><use transform="matrix(0.05,0,0,0.05,42.95,0)" xlink:href="#x"/><use transform="matrix(0.05,0,0,0.05,47.95,0)" xlink:href="#E"/><use transform="matrix(0.05,0,0,0.05,57.95,0)" xlink:href="#ax"/><use transform="matrix(0.05,0,0,0.05,67.95,0)" xlink:href="#ay"/><use transform="matrix(0.05,0,0,0.05,79.95,0)" xlink:href="#y"/><use transform="matrix(0.05,0,0,0.05,90.9,0)" xlink:href="#az"/><use transform="matrix(0.05,0,0,0.05,101.85000000000001,0)" xlink:href="#x"/><use transform="matrix(0.05,0,0,0.05,106.85000000000001,0)" xlink:href="#y"/><use transform="matrix(0.05,0,0,0.05,117.80000000000001,0)" xlink:href="#A"/></g><g id="v"><use transform="matrix(0.05,0,0,0.05,0,0)" xlink:href="#ap"/><use transform="matrix(0.05,0,0,0.05,10,0)" xlink:href="#X"/><use transform="matrix(0.05,0,0,0.05,15.949999999999998,0)" xlink:href="#W"/><use transform="matrix(0.05,0,0,0.05,25.950000000000003,0)" xlink:href="#ai"/><use transform="matrix(0.05,0,0,0.05,34.95,0)" xlink:href="#K"/><use transform="matrix(0.05,0,0,0.05,44.95,0)" xlink:href="#U"/><use transform="matrix(0.05,0,0,0.05,53.95,0)" xlink:href="#U"/><use transform="matrix(0.05,0,0,0.05,62.95,0)" xlink:href="#T"/><use transform="matrix(0.05,0,0,0.05,72.95,0)" xlink:href="#X"/><use transform="matrix(0.05,0,0,0.05,78.9,0)" xlink:href="#as"/><use transform="matrix(0.05,0,0,0.05,88.9,0)" xlink:href="#ai"/><use transform="matrix(0.05,0,0,0.05,97.9,0)" xlink:href="#W"/><use transform="matrix(0.05,0,0,0.05,107.9,0)" xlink:href="#Z"/><use transform="matrix(0.05,0,0,0.05,111.85000000000001,0)" xlink:href="#ab"/><use transform="matrix(0.05,0,0,0.05,115.80000000000001,0)" xlink:href="#U"/><use transform="matrix(0.05,0,0,0.05,124.80000000000001,0)" xlink:href="#W"/><use transform="matrix(0.05,0,0,0.05,134.8,0)" xlink:href="#K"/><use transform="matrix(0.05,0,0,0.05,144.8,0)" xlink:href="#U"/><use transform="matrix(0.05,0,0,0.05,153.8,0)" xlink:href="#O"/><use transform="matrix(0.05,0,0,0.05,159.75,0)" xlink:href="#P"/><use transform="matrix(0.05,0,0,0.05,165.7,0)" xlink:href="#Q"/></g></defs></g></svg>